PathFileType	4	(X/Y/Z)	C:\Users\willi\Desktop\Data_PaperCallum_v2\17_Akif\Gait05\marker_experimental_temp.trc
DataRate	CameraRate	NumFrames	NumMarkers	Units	OrigDataRate	OrigDataStartFrame	OrigNumFrames
100.000000	100.000000	7	27	mm	100.000000	186	213
Frame#	Time	C7			T10			Clav			Sternum			Right_Back			PCL_CRAN			PCL_RECHTS			PCL_LINKS			RCL_UL_CRAN			RCL_UL_POST			RCL_UL_ANT			RCL_LL_CRAN			RCL_LL_POST			RCL_LL_ANT			Right_Heel			Right_Toe			Right_M5			LCL_UL_CRAN			LCL_UL_POST			LCL_UL_ANT			LCL_LL_CRAN			LCL_LL_POST			LCL_LL_ANT			Left_Heel			Left_Toe			Left_M5			*26			
		X1	Y1	Z1	X2	Y2	Z2	X3	Y3	Z3	X4	Y4	Z4	X5	Y5	Z5	X6	Y6	Z6	X7	Y7	Z7	X8	Y8	Z8	X9	Y9	Z9	X10	Y10	Z10	X11	Y11	Z11	X12	Y12	Z12	X13	Y13	Z13	X14	Y14	Z14	X15	Y15	Z15	X16	Y16	Z16	X17	Y17	Z17	X18	Y18	Z18	X19	Y19	Z19	X20	Y20	Z20	X21	Y21	Z21	X22	Y22	Z22	X23	Y23	Z23	X24	Y24	Z24	X25	Y25	Z25	X26	Y26	Z26	X27	Y27	Z27	

187	1.86	-736.6710815429689	1370.85205078125	120.5917663574219	-716.4087524414064	1154.526489257813	129.9645690917969	-887.2349243164064	1310.089477539063	125.5538406372071	-958.0899047851564	1150.494873046875	148.3945312500001	-707.7711791992189	1302.775634765625	13.71944141387944	-734.0159301757814	989.5833129882813	118.069564819336	-727.0678710937501	932.1685791015625	88.46376037597661	-724.0477294921875	927.49462890625	139.3077850341797	-912.5490112304688	715.6876220703125	-59.62961196899408	-912.5388793945313	650.6859130859375	-53.75840377807612	-959.1912841796875	671.0293579101561	-57.96422958374018	-975.2457885742188	367.5955200195312	-26.6956939697265	-957.0946044921875	306.3803405761718	-33.20392990112299	-1006.606567382813	309.5991821289062	-21.4491291046142	-921.5848388671875	25.02460289001459	58.60717391967779	-1123.529296875	25.89435768127435	51.94946289062507	-1075.109619140625	3.835536718368465	-3.868617296218806	-808.7431640625	715.1632690429688	297.7955932617188	-789.1862182617188	652.8678588867188	292.4767456054688	-837.2486572265625	655.7178344726563	301.1177368164063	-672.4571533203125	383.4757385253906	296.6096191406251	-611.572021484375	358.1636352539062	292.0188293457032	-647.5822143554688	323.3943481445312	292.4358215332032	-389.7728271484375	209.7749938964843	204.2899017333985	-470.1722717285156	40.53829193115232	208.8428802490235	-429.0804138183594	53.63854980468747	262.4464721679688	-88.08016204834009	726.5147705078125	-3209.75439453125	
188	1.87	-749.7258300781251	1372.6533203125	119.1959838867188	-729.5774536132814	1156.390014648438	128.8422851562501	-900.2480468750001	1312.130615234375	124.5259017944337	-971.3077392578126	1152.650756835938	147.5389404296876	-721.2449951171876	1304.562866210938	12.01466369628911	-747.1439819335939	991.457275390625	117.2424697875977	-740.3255615234376	934.091552734375	87.46266937255864	-737.4128417968751	929.2318115234375	138.3085021972657	-923.2125854492188	717.007080078125	-60.91827774047846	-921.9213256835938	651.9403076171875	-55.03596496582026	-968.8515625	671.4114990234374	-59.71068191528315	-980.2853393554688	367.7202453613281	-27.63135337829584	-960.5571899414063	306.5577392578124	-33.49387359619135	-1010.554382324219	309.1162109374999	-22.38130378723138	-921.7213134765625	25.08094978332514	58.65967178344732	-1123.650146484375	26.43446922302239	51.86300659179695	-1075.165283203125	4.301594257354671	-4.159441471099788	-826.3298950195313	715.7033081054688	296.5142822265626	-808.3242797851563	652.856689453125	291.5345153808594	-856.2691650390625	656.900634765625	300.2213439941407	-697.3338012695313	384.7849426269531	297.0600280761719	-636.4022827148438	360.3727416992187	291.8462829589844	-672.03564453125	324.7598876953124	292.7994079589844	-411.5345458984375	220.7022705078125	202.8787994384766	-483.4446716308594	45.92485427856442	207.8252105712891	-443.9396362304688	62.57534408569333	261.54345703125	-88.07902526855493	726.5143432617188	-3209.75	
189	1.88	-762.6774902343751	1374.6123046875	117.8525161743164	-742.5717163085939	1158.4150390625	127.7136840820313	-913.1240844726564	1314.287475585938	123.5900192260743	-984.3143310546876	1154.891357421875	146.7745513916016	-734.6414794921876	1306.5576171875	10.32143115997319	-760.0552368164064	993.4635009765625	116.4019393920899	-753.3684692382814	936.1265258789063	86.50826263427739	-750.5482788085939	931.1300048828125	137.3519287109376	-933.5169677734375	718.2586059570311	-61.92686843872065	-930.9271850585938	653.1694335937499	-56.10494995117182	-978.1738891601563	671.7075805664061	-61.01639175415033	-984.4902954101563	367.7663574218749	-28.36629104614252	-963.2857666015625	306.6289367675781	-33.46253204345697	-1013.770690917969	308.6386413574218	-23.1431045532226	-921.8433227539063	25.0955028533935	58.77910995483404	-1123.6796875	26.98185157775872	51.90163421630866	-1075.239013671875	4.819700241088801	-4.297321796417171	-843.7998046875	716.5899658203125	295.3616943359376	-827.35400390625	653.2249145507813	290.6206359863282	-875.1541748046875	658.5104370117188	299.4731750488282	-722.89697265625	386.2482910156249	297.3616638183594	-661.9942016601563	362.5785522460937	291.6679382324219	-697.2953491210938	326.2250976562499	292.8053283691407	-434.1531677246094	230.4268646240234	201.5494689941407	-500.067138671875	51.67374801635739	206.8524322509766	-461.814453125	71.28771972656247	260.7039184570313	-88.07786560058618	726.513916015625	-3209.74560546875	
190	1.89	-775.5269775390626	1376.698486328125	116.5620651245118	-755.3951416015626	1160.569091796875	126.5807037353516	-925.8651123046876	1316.528930664063	122.7465057373047	-997.1141357421876	1157.184692382813	146.0945892333985	-747.9612426757814	1308.729736328125	8.64205169677739	-772.7560424804689	995.5714111328125	115.5591354370118	-766.1981201171876	938.2428588867188	85.61117553710942	-763.4583740234376	933.1593017578125	136.4497222900391	-943.509765625	719.4506835937499	-62.64686203002924	-939.6487426757813	654.3873291015624	-56.94163894653315	-987.2383422851563	671.9617309570311	-61.85783767700189	-987.9633178710938	367.7640686035156	-28.90258026123041	-965.4476928710938	306.6568603515624	-33.20322418212885	-1016.367065429688	308.1930541992187	-23.73394012451165	-921.9391479492188	25.10425186157221	58.94533157348638	-1123.658569335938	27.42885398864739	52.02708053588874	-1075.318115234375	5.28602504730218	-4.314081192016536	-861.1217651367188	717.8179321289063	294.3489379882813	-846.2197875976563	653.9891967773438	289.7437438964844	-893.849853515625	660.54052734375	298.8727416992188	-748.9784545898438	387.8759155273437	297.5032348632813	-688.1363525390625	364.8122558593749	291.4586791992188	-723.1332397460938	327.8546447753906	292.4644165039063	-457.4825134277344	238.7275390625	200.2218170166016	-520.008544921875	57.49838638305661	205.9730987548828	-482.5699768066406	79.39604949951169	259.9073181152344	-88.07669067382837	726.5134887695313	-3209.740966796875	
191	1.9	-788.2764892578126	1378.880249023438	115.3249053955079	-768.0540161132814	1162.818115234375	125.4470901489258	-938.4748535156251	1318.82373046875	121.9947967529297	-1009.7158203125	1159.499633789063	145.4911346435547	-761.2060546875001	1311.046752929688	6.979161739349411	-785.2563476562501	997.7498779296875	114.7279663085938	-778.8192749023439	940.409912109375	84.78337097167973	-776.1516723632814	935.2887573242188	135.6150512695313	-953.2257690429688	720.5902709960936	-63.0837783813476	-948.1532592773438	655.6008300781249	-57.53377532958979	-996.0987548828125	672.2075805664061	-62.25228118896478	-990.81103515625	367.7464294433593	-29.24923896789545	-967.1975708007813	306.7009582519531	-32.81266784667963	-1018.45361328125	307.8062744140624	-24.16262245178216	-922.0059814453125	25.13789939880365	59.13939285278326	-1123.61962890625	27.72259330749505	52.19804382324226	-1075.391235351563	5.641023635864192	-4.248819828033382	-878.2764282226563	719.3722534179688	293.4842834472657	-864.8875732421875	655.151611328125	288.9189758300782	-912.3238525390625	662.972412109375	298.4149169921876	-775.40869140625	389.6701354980468	297.4782104492188	-714.625732421875	367.0895996093749	291.1838989257813	-749.3431396484375	329.6944580078124	291.8250122070313	-481.4204711914063	245.43017578125	198.8046417236328	-543.1040649414063	63.09693527221676	205.2195281982422	-505.9843444824219	86.56426239013669	259.1298522949219	-88.07550048828149	726.5130004882813	-3209.736328125	
192	1.91	-800.9295654296876	1381.12548828125	114.1409912109375	-780.5570678710939	1165.127197265625	124.3183822631836	-950.9589233398439	1321.140747070313	121.333595275879	-1022.131530761719	1161.805786132813	144.9556121826172	-774.3787231445314	1313.474243164063	5.335811614990281	-797.5692138671876	999.9678955078125	113.9244613647461	-791.2397460937501	942.5975952148438	84.03768920898442	-788.6402587890626	937.4866333007813	134.8618621826172	-962.6856079101563	721.6815795898436	-63.25569534301752	-956.4805908203125	656.8094482421874	-57.88021850585932	-1004.780944824219	672.4661254882811	-62.25201034545892	-993.1380004882813	367.7460937499999	-29.42051506042474	-968.6634521484375	306.8103637695312	-32.37430953979487	-1020.13232421875	307.5023803710937	-24.44517517089837	-922.0484008789063	25.22019767761225	59.34666824340826	-1123.587158203125	27.85430335998528	52.37734603881843	-1075.450927734375	5.86345481872552	-4.140583038330012	-895.255126953125	721.2282104492188	292.7730102539063	-883.344482421875	656.6975708007813	288.1658935546876	-930.5643920898438	665.7749633789061	298.0907287597657	-802.0236206054688	391.6225891113281	297.2850952148438	-741.2786865234375	369.4025268554687	290.8047790527344	-775.75439453125	331.7583312988281	290.9632263183594	-505.9061584472656	250.4079132080078	197.214584350586	-569.0855712890625	68.18110656738278	204.605941772461	-531.7831420898438	92.52469635009763	258.3493957519532	-88.07430267334009	726.5125732421875	-3209.731689453125	
193	1.92	-813.4910278320314	1383.401733398438	113.0100479125977	-792.9150390625001	1167.462036132813	123.2016754150391	-963.3244628906251	1323.449340820313	120.7610015869141	-1034.376586914063	1164.07421875	144.4791870117188	-787.4828491210939	1315.976806640625	3.715517520904589	-809.7099609375001	1002.194885253906	113.1660385131836	-803.4699707031251	944.7767333984375	83.38732147216801	-800.9391479492189	939.7210693359375	134.2044830322266	-971.8973388671875	722.7256469726561	-63.19068908691401	-964.6445922851563	658.0059204101561	-57.9896621704101	-1013.285095214844	672.7452392578124	-61.93455886840814	-995.0416870117188	367.7925109863281	-29.43391799926752	-969.9388427734375	307.0195617675781	-31.9466819763183	-1021.49169921875	307.3006591796874	-24.60214805603021	-922.0760498046875	25.36739921569819	59.55910491943365	-1123.576171875	27.84553909301751	52.53623199462898	-1075.49365234375	5.96082448959344	-4.022965431213313	-912.0581665039063	723.3519287109375	292.2173461914063	-901.595703125	658.5958251953125	287.5062255859376	-948.5772094726563	668.9056396484374	297.8885192871094	-828.6705932617188	393.7122497558593	296.9272155761719	-767.9393310546875	371.7142944335937	290.2842407226563	-802.23828125	334.0202636718749	289.9684448242188	-530.9132690429688	253.5781097412109	195.3910675048828	-597.6199340820313	72.50188446044918	204.129379272461	-559.6738891601563	97.09226989746091	257.5490722656251	-88.07308197021509	726.5120849609375	-3209.726806640625	
